<?xml version="1.0" encoding="UTF-8"?> <svg xmlns="http://www.w3.org/2000/svg" viewBox="0 0 1051.91 209.07"><defs><style>.cls-1{fill:#ea4862;}.cls-2{fill:#5b7c62;}.cls-3{fill:#f6c22a;}.cls-4{fill:#0f5668;}</style></defs><g id="Layer_2" data-name="Layer 2"><g id="Layer_1-2" data-name="Layer 1"><path class="cls-1" d="M178.69,95.76a70.47,70.47,0,0,1-.46,15.74,77,77,0,0,1-1.54,7.75l-.34,1.19c-.25.88-.5,1.77-.78,2.64-.17.46-.31.89-.45,1.32-.27.81-.55,1.64-.9,2.46a69.92,69.92,0,0,1-17.7,26.23l-.71.67-.79.68-1.49,1.29c-.66.56-1.33,1.07-2,1.59l-1.14.89-1.29.91c-.68.48-1.36,1-2,1.41l-1.69,1.06-.84.52-.91.52-.8.45c-.89.5-1.81,1-2.77,1.47l-1.76.87c-.41.2-.8.36-1.19.53l-.68.29-.68.3c-.39.18-.79.35-1.18.51l-1.83.69c-.49.19-1,.36-1.53.53l-.36.11-.67.22c-.41.13-.83.27-1.25.37a57.81,57.81,0,0,1-31.34-.17A57.08,57.08,0,0,1,62,138a50.83,50.83,0,0,1-2.82-7.56,44.32,44.32,0,0,1-1.46-7.89A46.19,46.19,0,0,1,77.54,80.36a48.15,48.15,0,0,1,7.19-4l.69-.3c.42-.19.84-.38,1.26-.53l1.87-.65a20,20,0,0,1,3-.88l.89-.22a34.62,34.62,0,0,1,7.83-.89A38,38,0,0,1,123.64,81a37.08,37.08,0,0,1,10.42,13l.34.72a24.15,24.15,0,0,1,1.32,3.18l.32.9.18.47,0,.06v.06l.12.49.48,2a5.83,5.83,0,0,1,.21,1.09l.15,1,.06.37a11.41,11.41,0,0,1,.19,1.8c0,.62.06,1.28.11,2,0,.52,0,.94,0,1.37l0,.78v.37c0,.24,0,.48,0,.72l-.14,1.06c0,.26-.07.49-.1.73a11,11,0,0,1-.22,1.4l-.2.87a28.61,28.61,0,0,1-.89,3.25,20.73,20.73,0,0,1-1.07,2.83c-.16.36-.32.72-.47,1.09l0,.06,0,.06-1,1.84c-.06.1-.11.2-.16.3a7.14,7.14,0,0,1-.4.71l-.58.87a29.9,29.9,0,0,1-4.06,5.08,28.17,28.17,0,0,0,4.85-4.46,22,22,0,0,0,2.15-2.74l.61-.86.59-1a23.87,23.87,0,0,0,1.56-2.94l.51-1.13.24-.54.16-.46.74-2.25a13.2,13.2,0,0,0,.35-1.41c.06-.28.12-.56.19-.83l.26-1.15c0-.19.06-.43.09-.67l.06-.43a31.2,31.2,0,0,0,0-9.33L140,98.85l-.12-.6-.14-.47-.35-1.17-.35-1.16-.06-.21c0-.11-.07-.22-.1-.32l-.21-.49-.92-2.21a41.41,41.41,0,0,0-11-14.94,43.59,43.59,0,0,0-16.56-8.86l-.44-.14a4.81,4.81,0,0,0-.65-.18l-1.19-.25-2.39-.48c-.47-.09-1-.14-1.48-.19l-.86-.09-.79-.08c-.53-.06-1-.12-1.57-.14l-2.4,0H97.28a9.5,9.5,0,0,0-1.16.06l-2.49.24-1.21.12-1.11.22-.89.17a26.89,26.89,0,0,0-3.74.9l-2.4.74c-.47.15-.94.33-1.41.52l-.79.31a54.27,54.27,0,0,0-8.43,4.28A52.76,52.76,0,0,0,59.59,87.17a53.89,53.89,0,0,0-8.84,17,54.69,54.69,0,0,0-2.44,19.11,52.55,52.55,0,0,0,1.36,9.62,60.27,60.27,0,0,0,3,9.22,67.38,67.38,0,0,0,20.4,27.12,68.81,68.81,0,0,0,43.16,15.16,66.68,66.68,0,0,0,16.24-2c.55-.12,1.05-.26,1.56-.41l.84-.23.37-.1c.65-.18,1.3-.36,1.94-.59l2.4-.8c.48-.18,1-.37,1.47-.57l.77-.3.76-.3c.49-.19,1-.38,1.48-.59l2.22-1c1.22-.52,2.41-1.14,3.57-1.73l.79-.41,1.08-.56,1-.59,2.13-1.23c.93-.55,1.84-1.15,2.76-1.75l1.35-.88,1.15-.82c.93-.66,1.85-1.33,2.75-2l1.92-1.53,1-.77.88-.79a85.5,85.5,0,0,0,22.87-31.33c.47-1,.85-2,1.26-3.11.18-.49.37-1,.56-1.47.44-1.2.84-2.44,1.24-3.69l.32-1a88.75,88.75,0,0,0,2.27-9.53,87.65,87.65,0,0,0,1.31-19.68,88.65,88.65,0,0,0-3.22-19.52,102.52,102.52,0,0,0-7.18-18.19,107.16,107.16,0,0,0-39.29-42.68L144.65,13c-.63-.38-1.36-.82-2.09-1.2l-1.18-.63c-1.07-.58-2.13-1.15-3.2-1.71l-4.46-2.09c-1-.45-2-.86-3-1.26l-1.54-.63A112.22,112.22,0,0,0,110.71,0L72.58,22a100,100,0,0,1,19-1.82c48.13,0,87.14,33.74,87.14,75.36"></path><path class="cls-2" d="M54.7,55.72a70.54,70.54,0,0,1,13.87-7.47,74.47,74.47,0,0,1,7.48-2.54l1.19-.3c.89-.23,1.79-.45,2.69-.65.48-.08.92-.17,1.36-.27.84-.17,1.7-.34,2.58-.45a70,70,0,0,1,31.57,2.22l.93.27,1,.34,1.86.65c.81.3,1.59.62,2.37.94l1.34.54,1.44.67c.75.34,1.51.69,2.24,1.07l1.77.93.87.46.91.54.78.46c.88.52,1.79,1.06,2.66,1.67l1.64,1.08c.37.26.71.52,1,.77l.59.44.6.44c.35.26.7.51,1,.77L140,59.55c.41.31.81.68,1.22,1.05l.27.26c.18.17.36.32.53.47s.65.58.95.89a55.57,55.57,0,0,1,9.52,12.22,56.77,56.77,0,0,1,4.21,9.14,54.54,54.54,0,0,1,1.78,5.88,57.08,57.08,0,0,1-8.83,46.22,49.48,49.48,0,0,1-5.14,6.22,44,44,0,0,1-6.1,5.22,46.25,46.25,0,0,1-46.5,3.9,47.7,47.7,0,0,1-7.1-4.21l-.6-.44c-.38-.27-.75-.54-1.09-.83l-1.51-1.3a19.37,19.37,0,0,1-2.27-2.17l-.63-.66a35,35,0,0,1-4.69-6.33,37.94,37.94,0,0,1-4.61-24.3,37.1,37.1,0,0,1,6-15.51l.45-.66A25.76,25.76,0,0,1,78,91.88l.61-.73.32-.38,0,0,0,0,.36-.35,1.45-1.39a7.2,7.2,0,0,1,.84-.73l.79-.63.3-.24a11.92,11.92,0,0,1,1.46-1.06c.52-.33,1.08-.7,1.63-1.07s.83-.46,1.21-.66l.68-.36.33-.18.64-.33,1-.41.67-.27a13.29,13.29,0,0,1,1.32-.51l.86-.26a27.79,27.79,0,0,1,3.26-.86,20.72,20.72,0,0,1,3-.48l1.18-.14h.13l2.09-.06h.34c.27,0,.55,0,.81,0l1,.07a29.84,29.84,0,0,1,6.44,1,28,28,0,0,0-6.29-2,21.08,21.08,0,0,0-3.45-.49l-1.05-.1H98.88a22.74,22.74,0,0,0-3.33.13l-1.23.12-.59,0-.48.1L90.93,80c-.46.1-.93.25-1.4.4l-.81.25L87.6,81l-.63.26-.4.17a30.85,30.85,0,0,0-8.07,4.68l-1.78,1.54-.46.39-.34.37-.83.88-.84.88-.14.16-.24.25-.32.42-1.45,1.9a41.5,41.5,0,0,0-7.43,17,43.83,43.83,0,0,0,.6,18.76c0,.15.07.3.1.45s.1.44.17.66l.39,1.15.77,2.32c.16.44.36.89.58,1.37.12.26.24.53.35.79l.32.73c.22.48.43,1,.67,1.43l1.18,2.08.1.17.24.42.23.4a7.24,7.24,0,0,0,.63,1l1.44,2,.72,1,.74.85.59.69A28.35,28.35,0,0,0,77.15,149L79,150.72c.37.33.76.64,1.16.95l.66.54a55.74,55.74,0,0,0,7.92,5.16,53.16,53.16,0,0,0,18.09,5.79,54.11,54.11,0,0,0,19.1-.82,54.67,54.67,0,0,0,17.77-7.44,53.3,53.3,0,0,0,7.66-6,60.66,60.66,0,0,0,6.49-7.19A68,68,0,0,0,167.26,125a67.28,67.28,0,0,0,3.85-14.52,68.84,68.84,0,0,0-8.44-45,67.12,67.12,0,0,0-9.84-13.07c-.37-.42-.75-.78-1.13-1.15-.21-.2-.42-.4-.62-.61l-.28-.26c-.48-.48-1-1-1.48-1.4l-1.89-1.67-1.23-1-.64-.52-.64-.51-1.26-1-2-1.41c-1.06-.8-2.19-1.53-3.29-2.23l-.74-.48-1-.66-1-.59-2.13-1.23c-.94-.52-1.92-1-2.9-1.51l-1.43-.73-1.29-.58c-1-.47-2.07-.95-3.12-1.38l-2.29-.89-1.15-.45-1.12-.37a85.6,85.6,0,0,0-38.56-4.14c-1.12.1-2.19.28-3.32.46-.53.09-1,.18-1.57.25-1.25.22-2.53.5-3.81.77l-1,.22a88.37,88.37,0,0,0-27.1,11.5A88.39,88.39,0,0,0,29.54,53.46,103.12,103.12,0,0,0,17.38,68.77,107.19,107.19,0,0,0,.06,124.13l0,2.47c0,.74,0,1.59,0,2.41l.05,1.34c0,1.21.07,2.42.12,3.62l.41,4.91c.1,1.07.26,2.17.41,3.23.08.55.16,1.1.23,1.65a112.09,112.09,0,0,0,4.52,18.71l38.13,22a100.14,100.14,0,0,1-11-15.52C8.78,127.28,18.49,76.63,54.53,55.82"></path><path class="cls-3" d="M82,183.11a69.66,69.66,0,0,1-13.4-8.27,73.27,73.27,0,0,1-5.94-5.2l-.86-.89c-.64-.66-1.28-1.32-1.9-2-.31-.37-.61-.71-.91-1.05-.57-.64-1.16-1.29-1.69-2a71.89,71.89,0,0,1-8.54-13.38,72.91,72.91,0,0,1-5.32-15.06l-.23-.95-.2-1-.37-1.94c-.15-.85-.26-1.68-.37-2.52-.07-.48-.13-1-.2-1.44s-.1-1.07-.14-1.57c-.08-.83-.16-1.65-.2-2.48l-.07-2,0-1v-2c0-1,0-2.08.11-3.14l.12-2c0-.45.09-.88.14-1.3l.09-.73.08-.74c0-.43.09-.85.15-1.27l.32-1.94c.07-.51.19-1,.31-1.58l.08-.37c.06-.24.1-.47.15-.69.09-.43.18-.85.3-1.27a55.1,55.1,0,0,1,5.81-14.35,56.71,56.71,0,0,1,5.82-8.22,55.52,55.52,0,0,1,4.19-4.49,57.11,57.11,0,0,1,44.45-15.46,50.13,50.13,0,0,1,8,1.34,44.2,44.2,0,0,1,7.57,2.68,46.23,46.23,0,0,1,26.62,38.32,47.4,47.4,0,0,1-.09,8.25c0,.27-.05.51-.08.74,0,.46-.09.92-.17,1.36l-.37,2a20.09,20.09,0,0,1-.75,3.06c-.09.29-.18.58-.26.87a34.49,34.49,0,0,1-3.14,7.23,37.88,37.88,0,0,1-18.73,16.14,37.15,37.15,0,0,1-16.44,2.55l-.8-.07a23.43,23.43,0,0,1-3.41-.45l-.94-.17-.5-.08h-.06l-.06,0-.48-.14-1.93-.56a7.21,7.21,0,0,1-1-.36l-.94-.37-.35-.14a11.43,11.43,0,0,1-1.66-.74L92,141.38c-.45-.25-.81-.48-1.17-.71l-.66-.41-.31-.2c-.21-.12-.41-.25-.61-.39l-.85-.66-.58-.44a11.87,11.87,0,0,1-1.1-.89l-.66-.61a28.31,28.31,0,0,1-2.37-2.4,20.91,20.91,0,0,1-1.91-2.34c-.23-.32-.47-.64-.71-1l0,0,0-.06-1.09-1.79-.18-.29a7.1,7.1,0,0,1-.41-.7l-.47-.93a30.36,30.36,0,0,1-2.37-6.07,27.89,27.89,0,0,0,1.44,6.43,21,21,0,0,0,1.3,3.23c.15.32.3.64.44,1l.59,1A22.54,22.54,0,0,0,82,136l.72,1,.34.48.33.37L85,139.59c.32.35.69.68,1.05,1l.62.57.87.8.53.42.34.26a31.18,31.18,0,0,0,8.1,4.65l2.22.77.57.2.49.11,1.18.28,1.18.28.21.05.33.08.53.06,2.37.31A41.41,41.41,0,0,0,124,147.37a43.78,43.78,0,0,0,15.95-9.9l.33-.32a5.44,5.44,0,0,0,.49-.47l.81-.91,1.62-1.83c.31-.36.59-.76.9-1.18.16-.24.33-.47.51-.71l.46-.64c.31-.42.62-.85.91-1.29l1.21-2.07.1-.17.24-.41.24-.4a9,9,0,0,0,.52-1l1.05-2.28.5-1.11.36-1.07.3-.85a27.37,27.37,0,0,0,1.09-3.69l.56-2.45c.11-.48.18-1,.25-1.48,0-.28.09-.56.13-.84a55.19,55.19,0,0,0,.51-9.44,53,53,0,0,0-4-18.57,53.87,53.87,0,0,0-10.26-16.12,54.46,54.46,0,0,0-15.33-11.67,53,53,0,0,0-9-3.64,59.87,59.87,0,0,0-9.48-2,67.18,67.18,0,0,0-33.68,4.11A68.84,68.84,0,0,0,36.54,84.71a67.16,67.16,0,0,0-6.41,15.05c-.17.54-.3,1-.42,1.56-.08.28-.15.56-.22.84l-.1.37c-.17.66-.34,1.32-.46,2l-.5,2.48c-.09.5-.17,1-.25,1.56l-.12.81-.13.81c-.08.52-.16,1-.22,1.58l-.25,2.42c-.15,1.31-.22,2.66-.28,4l0,.88-.06,1.22v3.64c0,1.08.08,2.17.14,3.26,0,.54.06,1.08.08,1.61l.14,1.41c.11,1.13.22,2.27.38,3.39l.36,2.43.19,1.21.24,1.16a85.69,85.69,0,0,0,15.7,35.47c.65.92,1.33,1.76,2.06,2.65.33.4.67.81,1,1.23.82,1,1.69,1.94,2.57,2.91l.68.76a89.61,89.61,0,0,0,7.12,6.73A86,86,0,0,0,92.64,206,102.7,102.7,0,0,0,112,208.91a107,107,0,0,0,56.6-12.68l2.16-1.19c.64-.36,1.39-.77,2.08-1.22l1.14-.7c1-.64,2.06-1.27,3.08-1.92l4-2.81c.87-.62,1.75-1.31,2.6-2,.43-.35.87-.69,1.31-1a114.24,114.24,0,0,0,13.94-13.27v-44A100.37,100.37,0,0,1,191,145.43C167,187.11,118.24,204,82.2,183.22"></path><path class="cls-4" d="M255.87,66.87V99.66h52V116.6h-52V169h-20V50.08h78.68V66.87Z"></path><path class="cls-4" d="M326.08,69.87a11.36,11.36,0,0,1,0-16.48,12.4,12.4,0,0,1,8.78-3.31,12.73,12.73,0,0,1,8.77,3.16,10.19,10.19,0,0,1,3.54,7.93,11.61,11.61,0,0,1-3.46,8.55,12,12,0,0,1-8.85,3.46A12.36,12.36,0,0,1,326.08,69.87Zm-.92,16.86H344.4V169H325.16Z"></path><path class="cls-4" d="M415.85,169l-21.1-28.48L373.5,169H352.25l32-41.72-30.64-40.5H375l20.17,27,20.17-26.95h20.79l-30.79,40.19,32.18,42Z"></path><path class="cls-4" d="M467,162.72a52.34,52.34,0,0,1-20.32-19.63,54.35,54.35,0,0,1-7.32-28,54.29,54.29,0,0,1,7.32-28A52.21,52.21,0,0,1,467,67.41a62.42,62.42,0,0,1,57.9-.08A52.48,52.48,0,0,1,545.19,87a54.4,54.4,0,0,1,7.39,28.1,54.38,54.38,0,0,1-7.39,28.1,52.41,52.41,0,0,1-20.25,19.63,62.38,62.38,0,0,1-57.9-.07Zm52.12-8.78a41.75,41.75,0,0,0,16.17-16,45.29,45.29,0,0,0,5.85-22.87,45.25,45.25,0,0,0-5.85-22.86,41.77,41.77,0,0,0-16.17-16,49.27,49.27,0,0,0-46.27,0,42.16,42.16,0,0,0-16.32,16,44.81,44.81,0,0,0-5.93,22.86,44.84,44.84,0,0,0,5.93,22.87,42.13,42.13,0,0,0,16.32,16,49.19,49.19,0,0,0,46.27,0Z"></path><path class="cls-4" d="M635,88v81H624.48V154.17a30,30,0,0,1-11.85,11.47,35.71,35.71,0,0,1-17.25,4.08q-15.86,0-25-8.85t-9.16-26V88h10.93v45.89q0,12.78,6.31,19.4t18,6.62q12.78,0,20.17-7.78T624,130.46V88Z"></path><path class="cls-4" d="M668.29,91.5q7.62-4.16,18.86-4.15V98l-2.62-.15q-12.78,0-20,7.85t-7.23,22V169H646.34V88h10.47v15.86A26.48,26.48,0,0,1,668.29,91.5Z"></path><path class="cls-4" d="M716.55,66.87V99.66H768.6V116.6H716.55V169h-20V50.08h78.68V66.87Z"></path><path class="cls-4" d="M798,164.64a39.15,39.15,0,0,1-15.63-15,42.38,42.38,0,0,1-5.62-21.79,42,42,0,0,1,5.62-21.71A39.36,39.36,0,0,1,798,91.2a49.89,49.89,0,0,1,45.11,0,39.49,39.49,0,0,1,15.63,14.93,42,42,0,0,1,5.62,21.71,42.38,42.38,0,0,1-5.62,21.79,39.28,39.28,0,0,1-15.63,15,49.89,49.89,0,0,1-45.11,0Zm40-18.17q6.93-7.08,6.93-18.63T838,109.21a23.52,23.52,0,0,0-17.55-7.08q-10.63,0-17.48,7.08t-6.85,18.63q0,11.55,6.85,18.63t17.48,7.09A23.49,23.49,0,0,0,838,146.47Z"></path><path class="cls-4" d="M891.93,164.64a39.28,39.28,0,0,1-15.63-15,42.38,42.38,0,0,1-5.62-21.79,42,42,0,0,1,5.62-21.71A39.49,39.49,0,0,1,891.93,91.2a49.91,49.91,0,0,1,45.12,0,39.4,39.4,0,0,1,15.62,14.93,42,42,0,0,1,5.62,21.71,42.38,42.38,0,0,1-5.62,21.79,39.19,39.19,0,0,1-15.62,15,49.91,49.91,0,0,1-45.12,0Zm40-18.17q6.93-7.08,6.93-18.63T932,109.21q-6.91-7.08-17.55-7.08t-17.47,7.08q-6.86,7.08-6.86,18.63t6.86,18.63q6.84,7.09,17.47,7.09T932,146.47Z"></path><path class="cls-4" d="M1051.91,50.08V169h-18.48V158.33a29.78,29.78,0,0,1-11.78,8.78,39.78,39.78,0,0,1-15.47,2.92,43.25,43.25,0,0,1-21.33-5.24A37.55,37.55,0,0,1,970,149.94a44.39,44.39,0,0,1-5.39-22.1,44,44,0,0,1,5.39-22A37.76,37.76,0,0,1,984.85,91a43.35,43.35,0,0,1,21.33-5.23,39.08,39.08,0,0,1,14.94,2.77,30.12,30.12,0,0,1,11.54,8.31V50.08ZM1021,150.4a22.8,22.8,0,0,0,8.78-9,30,30,0,0,0,0-27.1,22.77,22.77,0,0,0-8.78-9,26.18,26.18,0,0,0-24.94,0,22.77,22.77,0,0,0-8.78,9,30,30,0,0,0,0,27.1,22.8,22.8,0,0,0,8.78,9,26.18,26.18,0,0,0,24.94,0Z"></path></g></g></svg> 